<svg width="57" height="56" viewBox="0 0 57 56" fill="none" xmlns="http://www.w3.org/2000/svg">
<path d="M28.5003 4.66675C15.6203 4.66675 5.16699 15.1201 5.16699 28.0001C5.16699 40.8801 15.6203 51.3334 28.5003 51.3334C41.3803 51.3334 51.8337 40.8801 51.8337 28.0001C51.8337 15.1201 41.3803 4.66675 28.5003 4.66675ZM22.177 38.0101L13.8003 29.6334C12.8903 28.7234 12.8903 27.2534 13.8003 26.3434C14.7103 25.4334 16.1803 25.4334 17.0903 26.3434L23.8337 33.0634L39.887 17.0101C40.797 16.1001 42.267 16.1001 43.177 17.0101C44.087 17.9201 44.087 19.3901 43.177 20.3001L25.467 38.0101C24.5803 38.9201 23.087 38.9201 22.177 38.0101Z" fill="#00CA5A"/>
</svg>
